Patient4_TMGait_0pt5_02_left_41_EMG.mot
version=1
nRows=16
nColumns=33
inDegrees=no
endheader
time	1LAddLong	2LGlutMax	3LGlutMed	4LIliopsoas	5LSemiMemb	6LBicFemLong	7LRecFem	8LVastMed	9LVastLat	10LGasMed	11LTibAnt	12lTibPost	13LPeroneusLong	14LSol	15LExtDigLong	16LFlexDigLong	17RAddLong	18RGlutMax	19RGlutMed	20RIliopsoas	21RSemiMemb	22RBicFemLong	23RRecFem	24RVastMed	25RVastLat	26RGasMed	27RTibAnt	28RTibPost	29RPeroneusLong	30RSol	31RExtDigLong	32RFlexDigLong
53.345	0.002136	1.1626	-0.20432	0.015259	-0.058441	-0.063171	-0.27435	-0.005646	0.12558	0.13382	0.015106	-0.026703	-0.12634	-0.11292	0.029755	0.014343	0.054016	-0.51071	-0.22385	0.074463	-0.00885	0.16678	0.23361	0.003662	-0.007172	0.006104	0.49454	-0.001068	0.013733	-0.079193	-0.004425	-0.013275
53.346	0.000458	1.1708	-0.26962	0.009308	-0.066071	0.12528	-0.29358	0.007019	0.13504	0.076752	-0.003967	0.027161	-0.081635	-0.23895	0.044708	-0.025177	0.1268	-0.50858	-0.15747	0.10376	-0.011292	0.18509	0.26794	0.008392	-0.024109	0.003052	0.024109	-0.007629	0.050812	-0.10849	0.00061	-0.014343
53.347	-0.004425	1.1874	0.039673	0.012665	-0.044403	0.33783	-0.31036	0.011749	0.13001	-0.16785	0.007019	0.034332	-0.037231	-0.14679	0.03952	-0.018768	0.1561	-0.57587	-0.18249	0.088501	-0.007324	0.17761	0.24918	0.046082	-0.023193	0.001526	-0.36453	-0.007324	-0.052795	-0.10361	-0.005493	-0.016327
53.348	-0.005188	1.1308	0.12863	0.026093	0.023956	0.41855	-0.31632	0.003967	0.12863	-0.097351	-0.003967	0.001221	0.32883	0.06546	0.041046	-0.003357	0.18982	-0.74417	-0.22858	0.012207	-0.010681	0.18219	0.24017	0.037689	-0.001526	0.00412	-0.16281	-0.009003	-0.072327	-0.054932	-0.004425	-0.016327
53.349	-0.002136	1.0258	0.063477	0.007629	0.069275	0.39536	-0.32776	0.007019	0.10819	-0.12741	0.003357	-0.056	0.354	0.07309	0.039825	0.043182	0.20035	-0.7544	-0.24765	-0.12558	-0.028381	0.12528	0.26886	0.038757	0.01297	0.001526	0.042572	-0.010071	-0.068359	-0.071716	-0.002899	-0.016022
53.35	0.003204	1.0619	-0.034332	-0.006714	0.082245	0.39475	-0.28366	0.00473	0.063019	0.15778	0.009613	-0.034485	0.2327	0.13809	0.045319	-0.02243	0.14099	-0.83176	-0.25192	-0.18143	-0.048828	0.055084	0.26672	0.062256	-0.001373	-0.001678	-0.063019	-0.01236	-0.023041	-0.045776	-0.00351	-0.014801
53.351	0.004883	0.98328	-0.029907	-0.00885	0.011597	0.35339	-0.26596	0.00885	0.000458	0.20233	0.018463	-0.008545	0.35019	0.1619	-0.007935	0.019989	0.074768	-0.8989	-0.16342	-0.21668	-0.062256	0.050964	0.26382	0.027008	0.000305	0	-0.10895	-0.010376	-0.010529	-0.021362	-0.003967	-0.009308
53.352	0.004425	0.85464	0.04303	-0.001831	-0.015717	0.31754	-0.31769	0.002136	0.025024	-0.039063	-0.002289	0.011292	0.11093	0.29633	0.035095	0.047455	0.021057	-0.86548	-0.064087	-0.11795	-0.099487	0.06134	0.27741	0.023346	-0.022583	0.001068	0.050354	-0.010223	0.007629	-0.033264	-0.002289	-0.005798
53.353	-0.000305	0.74219	0.04776	-0.007477	-0.031128	0.3093	-0.33402	0.007019	0.007324	-0.12131	-0.007172	-0.010681	0.40771	0.25436	0.071564	-0.006256	0.004883	-0.81436	-0.070038	-0.0383	-0.084534	0.078583	0.21835	0.006561	-0.018311	0.000916	0.2945	-0.010834	0.044861	-0.020905	-0.000305	-0.009308
53.354	-0.015411	0.61783	0.11963	0.016785	-0.093231	0.22659	-0.31708	0.014191	0.069275	-0.071106	-0.000153	-0.025177	0.57663	-0.011749	-0.021667	-0.035095	0.007019	-0.9462	0.090485	-0.027161	-0.068207	0.071106	0.21652	0.017853	-0.023651	0.004425	0.33478	-0.016785	-0.024719	-0.042572	-0.003967	-0.009918
53.355	-0.02243	0.54459	0.11719	0.025787	-0.11414	0.031128	-0.26093	0.015106	0.083008	-0.027771	0.012207	-0.017242	-0.079651	-0.084076	-0.093842	-0.037231	-0.012665	-0.87921	0.11398	-0.05127	-0.059509	0.041656	0.26321	0.048676	-0.036621	-0.001831	0.17151	-0.006409	-0.060272	-0.035553	-0.000916	-0.013885
53.356	-0.015717	0.44067	0.021973	0.010681	-0.079193	-0.09201	-0.3122	-0.001678	0.075226	-0.11444	0.020447	-0.006409	-0.34286	-0.012512	-0.049744	-0.042267	-0.011444	-0.8493	0.084534	-0.048065	-0.061646	0.034943	0.22675	0.037689	-0.028839	-0.002136	-0.018768	-0.010529	-0.025635	-0.054779	-0.002441	-0.011139
53.357	-0.023193	0.33737	-0.081635	0.011444	-0.027466	0.10834	-0.31937	-0.02182	0.071564	-0.11108	0.00885	-0.011444	-0.0914	-0.055695	-0.070801	-0.027771	-0.018158	-0.8464	-0.028229	-0.026855	-0.053253	0.03952	0.27069	0.092926	-0.024109	-0.003052	-0.052948	-0.011292	-0.060425	-0.037384	-0.001831	-0.014801
53.358	-0.019379	0.22415	-0.09079	-0.020752	-0.077515	0.25269	-0.36438	-0.01709	0.093384	-0.033264	-0.045319	-0.013275	0.037537	-0.11261	-0.13229	-0.005798	-0.020142	-0.83115	-0.061646	0.002136	-0.05249	0.025177	0.29984	0.088501	-0.024872	-0.001678	-0.088348	-0.016479	-0.069885	-0.0354	-0.003052	-0.018158
53.359	-0.03067	0.10162	-0.11398	-0.017395	-0.083313	0.31113	-0.28534	-0.02243	0.18967	0.012054	-0.037994	-0.003967	0.13962	-0.13458	-0.069885	-0.019226	-0.007782	-0.7872	0.037079	0.064697	-0.071411	0.014038	0.29648	0.039368	-0.035858	0.001221	-0.058594	-0.013428	-0.086212	-0.069427	-0.001526	-0.014191
53.36	-0.028076	0.014954	-0.018158	-0.02121	-0.054016	-0.099182	-0.30594	-0.029907	0.20325	0.031738	0.013733	-0.005341	0.13733	-0.090637	0.011597	-0.031738	-0.011444	-0.70511	-0.020294	0.088196	-0.06424	0.005493	0.35568	0.039063	-0.037994	-0.005341	-0.055237	-0.010681	0.00061	-0.068207	-0.002899	-0.0177
